<svg width="32" height="32" viewBox="0 0 32 32" fill="none" xmlns="http://www.w3.org/2000/svg">
<g clip-path="url(#clip0_40_542)">
<path d="M32 0H0V32H32V0Z" fill="#F0E9DA"/>
<mask id="mask0_40_542" style="mask-type:luminance" maskUnits="userSpaceOnUse" x="-12" y="12" width="56" height="34">
<path d="M-11.9551 23.4614C-2.63674 12.5415 6.6816 10.7215 15.9999 18.0015C25.3183 25.2814 34.6366 23.4614 43.955 12.5415V45.5197H-11.9551V23.4614Z" fill="white"/>
</mask>
<g mask="url(#mask0_40_542)">
<path d="M43.955 -10.3901H-11.9551V45.5199H43.955V-10.3901Z" fill="#0A0806"/>
<path d="M32.012 13.0879H0.0119629V45.0879H32.012V13.0879Z" fill="#242424"/>
</g>
<mask id="mask1_40_542" style="mask-type:luminance" maskUnits="userSpaceOnUse" x="-12" y="-11" width="56" height="35">
<path d="M-11.9551 -10.3901H43.955V12.5417C34.6366 23.4616 25.3183 25.2816 15.9999 18.0017C6.6816 10.7217 -2.63674 12.5417 -11.9551 23.4616V-10.3901Z" fill="white"/>
</mask>
<g mask="url(#mask1_40_542)">
<path d="M20.8775 29.6899H12.0367L3.39683 3.31831H10.7307L13.9957 13.9674L16.4571 23.5114H16.8589L19.3203 13.9674L22.4849 3.31831H29.5173L20.8775 29.6899Z" fill="#595045" fill-opacity="0.1"/>
<path d="M20.1944 28.7476H12.1224L4.23387 4.66912H10.93L13.9111 14.3922L16.1584 23.1063H16.5253L18.7727 14.3922L21.6621 4.66912H28.083L20.1944 28.7476Z" fill="#595045" fill-opacity="0.2"/>
<path d="M19.9843 27.8052H12.6811L5.5438 6.01992H11.6022L14.2994 14.817L16.3327 22.7012H16.6647L18.6979 14.817L21.3122 6.01992H27.1216L19.9843 27.8052Z" fill="#5A4E43"/>
</g>
<mask id="mask2_40_542" style="mask-type:luminance" maskUnits="userSpaceOnUse" x="-12" y="12" width="56" height="34">
<path d="M-11.9551 23.4614C-2.63674 12.5415 6.6816 10.7215 15.9999 18.0015C25.3183 25.2814 34.6366 23.4614 43.955 12.5415V45.5197H-11.9551V23.4614Z" fill="white"/>
</mask>
<g mask="url(#mask2_40_542)">
<path d="M19.9843 27.8052H12.6811L5.5438 6.01992H11.6022L14.2994 14.817L16.3327 22.7012H16.6647L18.6979 14.817L21.3122 6.01992H27.1216L19.9843 27.8052Z" fill="#D4A373"/>
</g>
</g>
<defs>
<clipPath id="clip0_40_542">
<rect width="32" height="32" fill="white"/>
</clipPath>
</defs>
</svg>
